<mxfile host="65bd71144e">
    <diagram id="mckb1e-DCGjqJJmubMi7" name="Page-1">
        <mxGraphModel dx="1477" dy="1696" grid="1" gridSize="10" guides="1" tooltips="1" connect="1" arrows="1" fold="1" page="1" pageScale="1" pageWidth="827" pageHeight="1169" math="0" shadow="0">
            <root>
                <mxCell id="0"/>
                <mxCell id="1" parent="0"/>
                <mxCell id="4" value="&lt;b&gt;ECS, Fargate, ECR&lt;/b&gt;&lt;br&gt;&lt;ul&gt;&lt;li&gt;Container Orchestration Tools : ECS Docker Swarm, Kubernetes, Mesos, Nomad&amp;nbsp;&lt;/li&gt;&lt;li style=&quot;text-align: left;&quot;&gt;ECS represents control panel connected wtih VMs/EC2s&lt;/li&gt;&lt;li style=&quot;text-align: left;&quot;&gt;Container lifecycle stages :&amp;nbsp;&lt;/li&gt;&lt;li style=&quot;text-align: left;&quot;&gt;EC2 Instances will host containers will have runtime and ECS agents&lt;/li&gt;&lt;li style=&quot;text-align: left;&quot;&gt;VM/EC2 management is required by Ops team&lt;/li&gt;&lt;li style=&quot;text-align: left;&quot;&gt;ECS is managed by AWS&lt;/li&gt;&lt;li style=&quot;text-align: left;&quot;&gt;If you use Fargate, you do not even have to manage VMs or EC2s&lt;/li&gt;&lt;li style=&quot;text-align: left;&quot;&gt;Fargate is serverless ways to manage containers, provisioned servers on demand&lt;/li&gt;&lt;li style=&quot;text-align: left;&quot;&gt;Fargate integrates with AWS services like cloudWatch, IAM, Elastic Load Balance, VPC for netowrking etc easily&lt;/li&gt;&lt;li style=&quot;text-align: left;&quot;&gt;ECR for image repo&lt;/li&gt;&lt;/ul&gt;" style="text;html=1;align=center;verticalAlign=middle;resizable=0;points=[];autosize=1;strokeColor=none;fillColor=#f0a30a;fontColor=#000000;" parent="1" vertex="1">
                    <mxGeometry x="-235" y="-75" width="660" height="260" as="geometry"/>
                </mxCell>
                <mxCell id="5" value="" style="sketch=0;points=[[0,0,0],[0.25,0,0],[0.5,0,0],[0.75,0,0],[1,0,0],[0,1,0],[0.25,1,0],[0.5,1,0],[0.75,1,0],[1,1,0],[0,0.25,0],[0,0.5,0],[0,0.75,0],[1,0.25,0],[1,0.5,0],[1,0.75,0]];outlineConnect=0;fontColor=#232F3E;gradientColor=#F78E04;gradientDirection=north;fillColor=#D05C17;strokeColor=#ffffff;dashed=0;verticalLabelPosition=bottom;verticalAlign=top;align=center;html=1;fontSize=12;fontStyle=0;aspect=fixed;shape=mxgraph.aws4.resourceIcon;resIcon=mxgraph.aws4.ecs;" parent="1" vertex="1">
                    <mxGeometry x="-140" y="288" width="90" height="90" as="geometry"/>
                </mxCell>
                <mxCell id="7" value="" style="verticalLabelPosition=bottom;html=1;verticalAlign=top;align=center;strokeColor=none;fillColor=#00BEF2;shape=mxgraph.azure.server_rack;" parent="1" vertex="1">
                    <mxGeometry x="-10" y="346" width="150" height="120" as="geometry"/>
                </mxCell>
                <mxCell id="11" value="" style="verticalLabelPosition=bottom;html=1;verticalAlign=top;align=center;strokeColor=none;fillColor=#00BEF2;shape=mxgraph.azure.server_rack;" parent="1" vertex="1">
                    <mxGeometry x="-10" y="202" width="150" height="120" as="geometry"/>
                </mxCell>
                <mxCell id="13" value="Docker Agent" style="whiteSpace=wrap;html=1;gradientColor=none;fillColor=#E6E6E6;strokeColor=#352c2c;gradientDirection=west;fontColor=#000000;" parent="1" vertex="1">
                    <mxGeometry x="10" y="284.5" width="50" height="35.5" as="geometry"/>
                </mxCell>
                <mxCell id="14" value="ECS&lt;br&gt;Agent&lt;br&gt;" style="whiteSpace=wrap;html=1;gradientColor=none;fillColor=#fcfcfd;strokeColor=#352c2c;gradientDirection=west;fontColor=#121111;" parent="1" vertex="1">
                    <mxGeometry x="68" y="284.5" width="50" height="35.5" as="geometry"/>
                </mxCell>
                <mxCell id="15" value="" style="edgeStyle=none;orthogonalLoop=1;jettySize=auto;html=1;entryX=0;entryY=0.5;entryDx=0;entryDy=0;entryPerimeter=0;" parent="1" edge="1">
                    <mxGeometry width="100" relative="1" as="geometry">
                        <mxPoint x="-50" y="326" as="sourcePoint"/>
                        <mxPoint x="-10" y="266" as="targetPoint"/>
                        <Array as="points"/>
                    </mxGeometry>
                </mxCell>
                <mxCell id="16" value="" style="edgeStyle=none;orthogonalLoop=1;jettySize=auto;html=1;entryX=0;entryY=0.5;entryDx=0;entryDy=0;entryPerimeter=0;exitX=1;exitY=0.5;exitDx=0;exitDy=0;exitPerimeter=0;" parent="1" source="5" target="7" edge="1">
                    <mxGeometry width="100" relative="1" as="geometry">
                        <mxPoint x="-40" y="336" as="sourcePoint"/>
                        <mxPoint y="276" as="targetPoint"/>
                        <Array as="points"/>
                    </mxGeometry>
                </mxCell>
                <mxCell id="18" value="" style="verticalLabelPosition=bottom;verticalAlign=top;html=1;shape=mxgraph.infographic.shadedCube;isoAngle=15;fillColor=#e2e7e9;strokeColor=none;" parent="1" vertex="1">
                    <mxGeometry x="10" y="220" width="40" height="50" as="geometry"/>
                </mxCell>
                <mxCell id="19" value="" style="verticalLabelPosition=bottom;verticalAlign=top;html=1;shape=mxgraph.infographic.shadedCube;isoAngle=15;fillColor=#d5dee1;strokeColor=none;" parent="1" vertex="1">
                    <mxGeometry x="60" y="210" width="40" height="50" as="geometry"/>
                </mxCell>
                <mxCell id="20" value="" style="verticalLabelPosition=bottom;verticalAlign=top;html=1;shape=mxgraph.infographic.shadedCube;isoAngle=15;fillColor=#E6E6E6;strokeColor=none;" parent="1" vertex="1">
                    <mxGeometry x="10" y="370.5" width="40" height="50" as="geometry"/>
                </mxCell>
                <mxCell id="21" value="" style="verticalLabelPosition=bottom;verticalAlign=top;html=1;shape=mxgraph.infographic.shadedCube;isoAngle=15;fillColor=#E6E6E6;strokeColor=none;" parent="1" vertex="1">
                    <mxGeometry x="60" y="360.5" width="40" height="50" as="geometry"/>
                </mxCell>
                <mxCell id="22" value="Docker Agent" style="whiteSpace=wrap;html=1;gradientColor=none;fillColor=#E6E6E6;strokeColor=#352c2c;gradientDirection=west;fontColor=#000000;" parent="1" vertex="1">
                    <mxGeometry x="10" y="429" width="50" height="35.5" as="geometry"/>
                </mxCell>
                <mxCell id="23" value="ECS&lt;br&gt;Agent&lt;br&gt;" style="whiteSpace=wrap;html=1;gradientColor=none;fillColor=#fcfcfd;strokeColor=#352c2c;gradientDirection=west;fontColor=#121111;" parent="1" vertex="1">
                    <mxGeometry x="68" y="429" width="50" height="35.5" as="geometry"/>
                </mxCell>
            </root>
        </mxGraphModel>
    </diagram>
</mxfile>